<svg width="12" height="12" viewBox="0 0 12 12" fill="none" xmlns="http://www.w3.org/2000/svg">
<path fill-rule="evenodd" clip-rule="evenodd" d="M10.1738 4.61858C10.0274 4.97223 9.76826 5.21337 9.46809 5.342L9.44691 5.59584C9.36274 6.60547 8.685 7.46781 7.72391 7.78818C7.40004 7.89614 7.1459 8.15028 7.03794 8.47415L6.77924 9.25029H5.22076L4.96206 8.47415C4.8541 8.15028 4.59996 7.89614 4.27609 7.78818C3.31496 7.46781 2.63723 6.60547 2.5531 5.59584L2.50022 4.96121C2.52114 3.04619 4.08003 1.50024 6 1.50024C6.14744 1.50024 6.29274 1.50936 6.43539 1.52706C6.54669 1.42641 6.67935 1.34123 6.83337 1.27743L7.04487 1.18983C7.24954 1.10505 7.41951 0.956049 7.53045 0.767187C7.0527 0.594428 6.53735 0.500244 6 0.500244C3.51472 0.500244 1.5 2.51496 1.5 5.00025L1.55655 5.67889C1.67391 7.08716 2.61923 8.28999 3.95986 8.73686C3.98513 8.74526 4.00496 8.76514 4.01338 8.79034L4.29057 9.62194C4.41564 9.9972 4.76677 10.2502 5.16228 10.2502H6.83772C7.23323 10.2502 7.58436 9.9972 7.70943 9.62194L7.98662 8.79034C7.99504 8.76514 8.01487 8.74526 8.04014 8.73686C9.38074 8.28999 10.3261 7.08716 10.4434 5.67889L10.5 5.00025C10.5 4.70853 10.4722 4.4233 10.4193 4.14705C10.3539 4.22523 10.3 4.31353 10.2603 4.40944L10.1738 4.61858ZM5 10.7503C4.72386 10.7503 4.5 10.9741 4.5 11.2503C4.5 11.5264 4.72386 11.7502 5 11.7502H7C7.27614 11.7502 7.5 11.5264 7.5 11.2503C7.5 10.9741 7.27614 10.7503 7 10.7503H5ZM8.6238 0.695978C8.72768 0.434951 9.08263 0.435015 9.18651 0.696079L9.33548 1.07066C9.50931 1.50778 9.84265 1.8551 10.2623 2.03625L10.6221 2.19157C10.8728 2.29978 10.8727 2.66967 10.622 2.7778L10.2623 2.93292C9.84231 3.11409 9.50854 3.46173 9.33471 3.89931L9.18651 4.27236C9.08263 4.53365 8.72734 4.53359 8.62363 4.27226L8.47479 3.89737C8.30095 3.45943 7.96704 3.1115 7.54668 2.93029L7.18818 2.77575C6.93741 2.66765 6.93735 2.29767 7.18808 2.18949L7.54842 2.034C7.96797 1.85296 8.30136 1.50582 8.47531 1.06885L8.6238 0.695978Z" fill="#2B2F36"/>
</svg>
