<svg width="55" height="16" viewBox="0 0 55 16" fill="none" xmlns="http://www.w3.org/2000/svg">
<g clip-path="url(#clip0_16_28775)">
<path d="M10.2506 8.40266L10.2989 8.35337C10.3303 8.32136 10.3641 8.2868 10.398 8.25479L10.4657 8.18822L10.6658 7.98659L10.9412 7.71327L11.1751 7.47707L11.3946 7.25559L11.6236 7.02388L11.8337 6.812L12.1279 6.51627C12.183 6.45995 12.2414 6.40554 12.2991 6.35113C12.4051 6.25255 12.5161 6.15654 12.6271 6.06308C12.7306 5.97923 12.8372 5.89793 12.9457 5.8192C13.0975 5.70846 13.2543 5.60733 13.4136 5.50875C13.5704 5.4153 13.7323 5.32632 13.896 5.24247C14.0503 5.1663 14.2096 5.09461 14.3714 5.0306C14.4604 4.99347 14.5526 4.96146 14.6442 4.92946C14.69 4.91474 14.7358 4.89745 14.7841 4.88273C14.3764 3.24535 13.6306 1.71807 12.5958 0.400734C12.3957 0.147253 12.0915 -0.000610352 11.7729 -0.000610352H3.31556C3.22838 -0.000610352 3.15625 0.0710811 3.15625 0.161976C3.15625 0.213824 3.18008 0.260552 3.22148 0.292557C6.10727 2.45226 8.50133 5.22775 10.2312 8.42442L10.2506 8.40201V8.40266Z" fill="#00D6B9"/>
<path d="M6.88927 16C11.2572 16 15.0624 13.5401 17.0457 9.90495C17.1159 9.77693 17.183 9.64891 17.2483 9.51833C17.1492 9.71292 17.0381 9.89983 16.9152 10.0771C16.8719 10.1386 16.8287 10.2 16.7822 10.2621C16.7245 10.3383 16.6662 10.41 16.606 10.481C16.5577 10.5374 16.5094 10.5918 16.4586 10.6462C16.357 10.7544 16.251 10.8581 16.14 10.9541C16.0773 11.0085 16.017 11.0597 15.9518 11.109C15.8772 11.1679 15.8 11.2248 15.7229 11.2767C15.6746 11.3113 15.6238 11.3433 15.573 11.3753C15.5222 11.4073 15.4695 11.4393 15.4137 11.4713C15.3052 11.5327 15.1916 11.5923 15.0781 11.6435C14.979 11.6876 14.878 11.7299 14.7764 11.7689C14.6654 11.8105 14.5544 11.8477 14.4384 11.8797C14.2671 11.929 14.0959 11.9661 13.9197 11.993C13.7942 12.0128 13.6638 12.0275 13.5358 12.0371C13.401 12.0467 13.263 12.0493 13.1256 12.0493C12.9738 12.0467 12.8214 12.0371 12.6671 12.0199C12.5536 12.0077 12.4401 11.9904 12.3272 11.9706C12.2281 11.9533 12.1296 11.9309 12.0305 11.9066C11.9772 11.8944 11.927 11.8797 11.8737 11.8649C11.7288 11.8253 11.5839 11.7837 11.439 11.742C11.3669 11.7196 11.2942 11.7004 11.2245 11.678C11.116 11.646 11.01 11.6115 10.9034 11.5769C10.8169 11.55 10.7297 11.5206 10.6425 11.4905C10.5603 11.4636 10.4763 11.4361 10.3941 11.4066L10.2254 11.3477C10.1577 11.3234 10.088 11.2985 10.0203 11.2741L9.87541 11.2197C9.77882 11.1852 9.68223 11.148 9.58815 11.1115C9.53295 11.0891 9.47713 11.0699 9.42194 11.0475C9.3473 11.0181 9.27454 10.9886 9.1999 10.9592C9.12276 10.9272 9.0431 10.8952 8.96596 10.8632L8.81417 10.7992L8.62601 10.7204L8.48112 10.659L8.33122 10.5924L8.20076 10.5335L8.08222 10.4791L7.96179 10.4228L7.83886 10.3639L7.68206 10.2903L7.51773 10.2116C7.46003 10.1821 7.4017 10.1552 7.34399 10.1251L7.1966 10.0515C4.60183 8.7278 2.25858 6.94448 0.275345 4.78221C0.215133 4.7182 0.116034 4.71308 0.0508039 4.77453C0.0194435 4.80398 0 4.84814 0 4.89295L0.00501767 12.5102V13.1285C0.00501767 13.4882 0.178755 13.823 0.471034 14.0227C2.37022 15.3183 4.60434 16.0051 6.88989 16" fill="#3370FF"/>
<path d="M19.7241 5.26291C18.2495 4.5268 16.5629 4.36869 14.9824 4.82188C14.9146 4.84173 14.8494 4.86157 14.7848 4.88077C14.739 4.89549 14.6932 4.91022 14.6449 4.9275C14.5534 4.9595 14.4618 4.99407 14.3721 5.02864C14.2103 5.09265 14.0535 5.16434 13.8967 5.24051C13.7323 5.3218 13.5711 5.41014 13.4143 5.50423C13.2525 5.60025 13.0982 5.70394 12.9464 5.81468C12.8379 5.89341 12.7319 5.97471 12.6278 6.05856C12.5143 6.15202 12.4058 6.24547 12.2998 6.34661C12.2421 6.40102 12.1863 6.45478 12.1286 6.51175L11.8344 6.80748L11.6243 7.01935L11.3954 7.25107L11.1758 7.47255L10.9419 7.70874L10.669 7.98463L10.469 8.18626L10.4012 8.25283C10.3699 8.28484 10.336 8.3194 10.3021 8.35141L10.2538 8.4007L10.1792 8.47239C10.1503 8.49927 10.124 8.52424 10.0945 8.55112C9.36821 9.23347 8.55723 9.8166 7.68604 10.2922L7.84284 10.3658L7.96577 10.4247L8.08619 10.481L8.20474 10.5354L8.3352 10.5943L8.4851 10.6609L8.62999 10.7223L8.81815 10.8011L8.96993 10.8651C9.04708 10.8971 9.12674 10.9291 9.20388 10.9611C9.27601 10.9906 9.35128 11.02 9.42591 11.0494C9.48111 11.0718 9.53693 11.091 9.59212 11.1135C9.68871 11.1506 9.7853 11.1851 9.87939 11.2216L10.0243 11.276C10.092 11.3004 10.1591 11.3253 10.2294 11.3496L10.3981 11.4085C10.4803 11.4354 10.5624 11.4649 10.6465 11.4924C10.733 11.5218 10.8202 11.5487 10.9074 11.5788C11.0134 11.6134 11.1219 11.6454 11.2285 11.6799C11.3006 11.7023 11.3734 11.7241 11.443 11.744C11.5879 11.7856 11.7328 11.8278 11.8777 11.8669C11.931 11.8816 11.9812 11.8937 12.0345 11.9085C12.1336 11.9328 12.232 11.9526 12.3311 11.9725C12.4447 11.9923 12.5582 12.0096 12.6711 12.0218C12.8254 12.039 12.9778 12.0486 13.1296 12.0512C13.2669 12.0538 13.4049 12.0486 13.5398 12.039C13.6702 12.0294 13.7982 12.0147 13.9236 11.9949C14.0974 11.968 14.2711 11.9283 14.4423 11.8816C14.5559 11.8496 14.6694 11.8124 14.7804 11.7708C14.882 11.7337 14.983 11.6921 15.0821 11.6454C15.1956 11.5935 15.3091 11.5346 15.4176 11.4732C15.471 11.4437 15.5236 11.4117 15.577 11.3772C15.6303 11.3452 15.6786 11.3106 15.7269 11.2786C15.804 11.2242 15.8812 11.1704 15.9558 11.1109C16.021 11.0616 16.0837 11.0098 16.144 10.956C16.2525 10.86 16.3585 10.7563 16.4601 10.6481C16.5109 10.5937 16.5592 10.5399 16.6075 10.4829C16.6677 10.4113 16.7279 10.3376 16.7837 10.264C16.8295 10.2051 16.8728 10.1431 16.9167 10.079C17.0371 9.90174 17.1481 9.71675 17.2472 9.52472L17.3607 9.29556L18.3693 7.24403L18.3812 7.21971C18.7143 6.48615 19.1677 5.82556 19.7253 5.26163L19.7241 5.26291Z" fill="#133C9A"/>
<path d="M38.8302 6.06882C38.2613 5.59514 37.444 5.35767 36.3778 5.35767C35.3115 5.35767 34.2446 5.5817 33.1633 6.49193C33.11 6.53674 33.1069 6.61931 33.1558 6.66924L34.1311 7.6646C34.1694 7.70364 34.229 7.71068 34.276 7.68188C35.1221 7.16212 35.6766 6.99697 36.2925 6.99697C37.1173 6.99697 37.5293 7.40792 37.5293 8.23045V8.5857L36.1501 8.62923C34.9603 8.67276 34.0709 8.89871 33.4807 9.30774C32.8905 9.71677 32.5957 10.3511 32.5957 11.212C32.5957 12.073 32.8146 12.6676 33.253 13.1125C33.6914 13.5574 34.2923 13.7801 35.055 13.7801C35.6759 13.7801 36.1796 13.6892 36.5659 13.5081C36.8946 13.3538 37.2157 13.0939 37.5293 12.731V13.5151C37.5293 13.5817 37.582 13.6355 37.6472 13.6355H39.5659C39.6311 13.6355 39.6838 13.5817 39.6838 13.5151V8.23045C39.6838 7.26325 39.3997 6.5425 38.8308 6.06818L38.8302 6.06882ZM37.0777 11.7203C36.7767 12.0154 36.3753 12.1626 35.8729 12.1626C35.1717 12.1626 34.821 11.8509 34.821 11.2268C34.821 10.7915 34.9747 10.4676 35.2833 10.2545C35.5913 10.0419 36.0604 9.92544 36.6908 9.90624L37.5293 9.87743V10.5451C37.5293 11.0335 37.3788 11.4252 37.0777 11.7203Z" fill="black"/>
<path d="M54.979 13.446L52.3158 9.56439L52.3177 9.56183L52.3158 9.55927L54.8385 5.67513C54.8905 5.59512 54.8341 5.48758 54.74 5.48758H52.5115C52.3924 5.48758 52.2813 5.54839 52.2161 5.64953L50.0203 9.03055V2.42661C50.0203 2.36004 49.9676 2.30627 49.9023 2.30627H47.9768C47.9116 2.30627 47.8589 2.36004 47.8589 2.42661V13.5151C47.8589 13.5817 47.9116 13.6354 47.9768 13.6354H49.9023C49.9676 13.6354 50.0203 13.5817 50.0203 13.5151V10.0643L52.3648 13.4812C52.4312 13.5778 52.5398 13.6354 52.6552 13.6354H54.8824C54.9777 13.6354 55.0342 13.5253 54.979 13.4453V13.446Z" fill="black"/>
<path d="M31.3055 13.6367H24.7417C24.4676 13.6367 24.2456 13.4101 24.2456 13.1304V2.43301C24.2456 2.36324 24.3014 2.30627 24.3698 2.30627H26.3104C26.3787 2.30627 26.4346 2.36324 26.4346 2.43301V11.4028H31.3055C31.3738 11.4028 31.4297 11.4597 31.4297 11.5295V13.51C31.4297 13.5798 31.3738 13.6367 31.3055 13.6367Z" fill="black"/>
<path d="M46.6457 5.47094C45.0125 5.15089 43.923 5.71994 43.2551 6.63977V5.63736C43.2551 5.57079 43.2024 5.51703 43.1371 5.51703H41.2185C41.1533 5.51703 41.1006 5.57079 41.1006 5.63736V13.5157C41.1006 13.5823 41.1533 13.6361 41.2185 13.6361H43.1371C43.2024 13.6361 43.2551 13.5823 43.2551 13.5157V9.2053C43.2551 9.04655 43.272 8.8878 43.314 8.73546C43.6696 7.43413 45.2972 7.14865 46.6 7.41109C46.6727 7.42581 46.7405 7.36948 46.7405 7.29331V5.59C46.7405 5.53239 46.7009 5.4831 46.6457 5.47222V5.47094Z" fill="black"/>
</g>
<defs>
<clipPath id="clip0_16_28775">
<rect width="55" height="16" fill="white"/>
</clipPath>
</defs>
</svg>
